<svg width="24" height="24" viewBox="0 0 24 24" fill="none" xmlns="http://www.w3.org/2000/svg">
<path d="M18 14V18.833C18.0001 18.9863 17.97 19.1381 17.9114 19.2797C17.8528 19.4214 17.7669 19.5501 17.6585 19.6585C17.5501 19.7668 17.4214 19.8528 17.2797 19.9114C17.1381 19.97 16.9863 20.0001 16.833 20H5.167C5.01375 20 4.862 19.9698 4.72041 19.9111C4.57882 19.8525 4.45017 19.7665 4.34181 19.6582C4.23344 19.5498 4.14748 19.4211 4.08883 19.2796C4.03019 19.138 4 18.9862 4 18.833V7.16697C3.99987 7.01368 4.02996 6.86187 4.08857 6.72022C4.14717 6.57858 4.23312 6.44987 4.34151 6.34148C4.44991 6.23309 4.57861 6.14714 4.72025 6.08853C4.8619 6.02993 5.01371 5.99984 5.167 5.99997H9.785M14.232 3.99997H20V9.76797M12.111 11.889L19.889 4.11097" stroke="white" stroke-width="2" stroke-linecap="round" stroke-linejoin="round"/>
</svg>
