<svg width="30" height="30" viewBox="0 0 30 30" fill="none" xmlns="http://www.w3.org/2000/svg">
<path d="M23.4541 25.1695L19.8448 17.8102C21.2946 16.7833 22.3805 15.3223 22.9459 13.6381C23.5114 11.9539 23.5269 10.1336 22.9904 8.43992C22.4539 6.74627 21.3931 5.26692 19.9611 4.21542C18.5291 3.16391 16.8 2.59466 15.0234 2.58984H15C13.221 2.58948 11.4881 3.15513 10.0519 4.20494C8.6157 5.25476 7.55077 6.73429 7.01119 8.42945C6.47161 10.1246 6.48536 11.9475 7.05045 13.6343C7.61554 15.3212 8.70267 16.7845 10.1545 17.8125L6.54516 25.1695C6.51108 25.2391 6.49742 25.317 6.50575 25.394C6.51408 25.471 6.54407 25.5441 6.59224 25.6048C6.64041 25.6655 6.70479 25.7114 6.77792 25.737C6.85105 25.7626 6.92995 25.767 7.00547 25.7496L9.03351 25.283L9.90422 27.1718C9.93665 27.2422 9.98836 27.3019 10.0534 27.3441C10.1184 27.3863 10.194 27.4092 10.2715 27.4102H10.2766C10.3533 27.4102 10.4285 27.3887 10.4936 27.3481C10.5586 27.3075 10.6111 27.2495 10.6448 27.1807L14.4909 19.3409C14.8293 19.3628 15.1687 19.3623 15.507 19.3395L19.3537 27.1807C19.3875 27.2495 19.4399 27.3075 19.505 27.3481C19.5701 27.3887 19.6453 27.4102 19.722 27.4102H19.7271C19.8046 27.4092 19.8802 27.3863 19.9452 27.3441C20.0102 27.3019 20.0619 27.2422 20.0944 27.1718L20.9651 25.283L22.9931 25.7496C23.0687 25.7671 23.1476 25.7628 23.2208 25.7372C23.294 25.7116 23.3584 25.6658 23.4066 25.605C23.4548 25.5443 23.4848 25.4712 23.4931 25.3941C23.5014 25.317 23.4876 25.2391 23.4534 25.1695H23.4541ZM10.2891 26.0452L9.63984 24.6368C9.60029 24.5513 9.53255 24.482 9.44797 24.4405C9.36339 24.399 9.26712 24.3879 9.17531 24.409L7.66172 24.757L10.8492 18.2578C11.7095 18.7471 12.6497 19.0804 13.6261 19.2422L10.2891 26.0452ZM7.43672 10.9535C7.44131 8.95057 8.24049 7.03129 9.65881 5.61701C11.0771 4.20273 12.9987 3.40903 15.0016 3.41016H15.0234C16.0167 3.41261 16.9998 3.61083 17.9164 3.99348C18.8331 4.37612 19.6653 4.93569 20.3655 5.64018C21.0657 6.34468 21.6202 7.18028 21.9973 8.09922C22.3744 9.01816 22.5666 10.0024 22.563 10.9957C22.5622 12.2571 22.2446 13.4981 21.6393 14.6048C21.0341 15.7115 20.1606 16.6484 19.099 17.3297C14.0906 20.5753 7.42195 16.9643 7.43672 10.9535ZM20.8247 24.409C20.7329 24.388 20.6367 24.3991 20.5522 24.4406C20.4676 24.4821 20.3999 24.5513 20.3604 24.6368L19.7112 26.0452L16.3739 19.2422C17.3505 19.0808 18.2908 18.7475 19.151 18.2578L22.3385 24.758L20.8247 24.409Z" fill="white"/>
<path d="M21.503 10.9922C21.5059 10.1381 21.3404 9.29174 21.016 8.5016C20.6916 7.71147 20.2146 6.99303 19.6123 6.38736C19.0101 5.78169 18.2944 5.30066 17.5061 4.97179C16.7178 4.64292 15.8724 4.47264 15.0183 4.47071H15C13.2753 4.46838 11.6203 5.15127 10.3991 6.36917C9.17794 7.58706 8.49057 9.24019 8.48824 10.9649C8.48591 12.6896 9.16881 14.3446 10.3867 15.5658C11.6046 16.7869 13.2577 17.4743 14.9824 17.4766H15C16.7209 17.4746 18.3709 16.7914 19.5895 15.5763C20.8081 14.3612 21.496 12.713 21.503 10.9922ZM15 16.6563H14.9841C14.2378 16.6553 13.4991 16.5073 12.81 16.2207C12.121 15.9342 11.4951 15.5147 10.9682 14.9863C9.90394 13.9191 9.30726 12.4728 9.30937 10.9657C9.31149 9.45857 9.91222 8.01401 10.9794 6.9498C12.0466 5.88559 13.4929 5.28891 15 5.29102H15.0166C16.5238 5.29323 17.9683 5.89405 19.0324 6.96132C20.0966 8.02858 20.6932 9.47486 20.691 10.982C20.6888 12.4891 20.0879 13.9337 19.0207 14.9978C17.9534 16.0619 16.5071 16.6585 15 16.6563Z" fill="white"/>
</svg>
