<svg width="22" height="16" viewBox="0 0 22 16" fill="none" xmlns="http://www.w3.org/2000/svg">
<path d="M21.7071 7.29289C22.0976 7.68342 22.0976 8.31658 21.7071 8.70711L15.3431 15.0711C14.9526 15.4616 14.3195 15.4616 13.9289 15.0711C13.5384 14.6805 13.5384 14.0474 13.9289 13.6569L19.5858 8L13.9289 2.34315C13.5384 1.95262 13.5384 1.31946 13.9289 0.928933C14.3195 0.538408 14.9526 0.538408 15.3431 0.928933L21.7071 7.29289ZM20 8L20 7L21 7L21 8L21 9L20 9L20 8Z" fill="url(#paint0_radial_43_21)"/>
<path d="M0.292893 7.29289C-0.097631 7.68342 -0.097631 8.31658 0.292893 8.70711L6.65685 15.0711C7.04738 15.4616 7.68054 15.4616 8.07107 15.0711C8.46159 14.6805 8.46159 14.0474 8.07107 13.6569L2.41421 8L8.07107 2.34315C8.46159 1.95262 8.46159 1.31946 8.07107 0.928933C7.68054 0.538408 7.04738 0.538408 6.65685 0.928933L0.292893 7.29289ZM2 8L2 7L1 7L1 8L1 9L2 9L2 8Z" fill="url(#paint1_radial_43_21)"/>
<defs>
<radialGradient id="paint0_radial_43_21" cx="0" cy="0" r="1" gradientUnits="userSpaceOnUse" gradientTransform="translate(13.5 7.5) scale(7 12.3389)">
<stop offset="0.378215" stop-color="#728CD5"/>
<stop offset="0.721154" stop-color="#3E5BAC"/>
</radialGradient>
<radialGradient id="paint1_radial_43_21" cx="0" cy="0" r="1" gradientUnits="userSpaceOnUse" gradientTransform="translate(1 7.50001) scale(7.5 209.272)">
<stop offset="0.375" stop-color="#3E5BAC"/>
<stop offset="1" stop-color="#728CD5"/>
</radialGradient>
</defs>
</svg>
