<svg width="24" height="24" viewBox="0 0 24 24" fill="none" xmlns="http://www.w3.org/2000/svg">
<path d="M2.038 5.60997C2.01266 5.73842 1.99993 5.86904 2 5.99997V18C2 18.5304 2.21071 19.0391 2.58579 19.4142C2.96086 19.7893 3.46957 20 4 20H20C20.5304 20 21.0391 19.7893 21.4142 19.4142C21.7893 19.0391 22 18.5304 22 18V5.99997C22 5.87997 21.99 5.76197 21.97 5.64797L21.104 6.29797L13.214 12.33C12.8652 12.5965 12.4385 12.7409 11.9995 12.7409C11.5605 12.7409 11.1338 12.5965 10.785 12.33L2.884 6.28797L2.038 5.60997Z" fill="white"/>
<path d="M20.677 4.11697C20.4598 4.03914 20.2307 3.99955 20 3.99997H4C3.775 3.99997 3.56 4.03697 3.358 4.10497L4.116 4.71197L12 10.742L19.9 4.69997L20.677 4.11697Z" fill="white"/>
</svg>
