<svg width="34" height="34" viewBox="0 0 34 34" fill="none" xmlns="http://www.w3.org/2000/svg">
<g clip-path="url(#clip0_69_57)">
<path fill-rule="evenodd" clip-rule="evenodd" d="M24.5664 10.572C24.696 10.7264 24.7758 10.9164 24.7955 11.117C24.8152 11.3175 24.7738 11.5194 24.6768 11.6961L15.3875 28.6285C15.2927 28.8011 15.149 28.9418 14.9746 29.0331C14.8001 29.1243 14.6026 29.162 14.4068 29.1415C14.211 29.1209 14.0256 29.043 13.8738 28.9176C13.7221 28.7921 13.6108 28.6246 13.5538 28.4362L11.7904 22.5978L16.7827 18.4087C16.9859 18.2382 17.113 17.994 17.1361 17.7298C17.1593 17.4656 17.0765 17.203 16.906 16.9999C16.7355 16.7967 16.4913 16.6696 16.2271 16.6465C15.9629 16.6234 15.7003 16.7061 15.4972 16.8766L10.5048 21.0657L5.06134 18.3152C4.88562 18.2264 4.74003 18.0877 4.64282 17.9165C4.5456 17.7453 4.50109 17.5492 4.51487 17.3528C4.52864 17.1564 4.60008 16.9684 4.72023 16.8124C4.84039 16.6565 5.00391 16.5394 5.1903 16.476L23.4786 10.2681C23.6694 10.2033 23.8754 10.1976 24.0695 10.2518C24.2636 10.306 24.4369 10.4176 24.5664 10.572Z" fill="white"/>
</g>
<defs>
<clipPath id="clip0_69_57">
<rect width="24" height="24" fill="white" transform="translate(18.3851 0.0939941) rotate(50)"/>
</clipPath>
</defs>
</svg>
