<svg width="24" height="24" viewBox="0 0 24 24" fill="none" xmlns="http://www.w3.org/2000/svg">
<path d="M21 12C21 16.9706 16.9706 21 12 21M21 12C21 7.02944 16.9706 3 12 3M21 12H16M12 21C7.02944 21 3 16.9706 3 12M12 21V16M12 3C7.02944 3 3 7.02944 3 12M12 3V8M16 12H12M16 12V8M16 12V16M3 12H8M12 16H8M12 16V12M12 16H16M8 12V8M8 12V16M8 12H12M12 8H8M12 8V12M12 8H16M8 3.93552V8M8 8H3.93552M8 16V20.0645M8 16H3.93552M16 8V3.93552M16 8H20.0645M16 16V20.0645M16 16H20.0645" stroke="white" stroke-linecap="round" stroke-linejoin="round"/>
</svg>
