<svg width="24" height="24" viewBox="0 0 24 24" fill="none" xmlns="http://www.w3.org/2000/svg">
<path d="M12.0063 2.49997L12.4292 2.51071C14.5388 2.61035 16.5569 3.42224 18.1509 4.82028C19.88 6.33752 21.0225 8.4136 21.3774 10.6865V10.6875C21.7403 12.9711 21.2976 15.3099 20.1265 17.3037V17.3047C18.9829 19.2583 17.1824 20.7408 15.0474 21.4902C15.0188 21.4945 14.9982 21.4965 14.9839 21.4961C14.9836 21.493 14.9829 21.4898 14.9829 21.4863C14.9829 21.3198 14.9858 20.9622 14.9888 20.4697C14.9918 19.9817 14.9946 19.365 14.9946 18.6816C15.0218 18.2748 14.9661 17.8665 14.8286 17.4824C14.7875 17.3677 14.7377 17.2567 14.6831 17.1484C15.5867 16.9742 16.507 16.6525 17.2583 16.0078C18.1967 15.2024 18.8007 13.9593 18.8726 12.0976L18.8804 11.7168C18.8952 10.6759 18.5485 9.6659 17.9067 8.85349C18.157 7.92798 18.0908 6.93981 17.7095 6.05563L17.6196 5.84958L17.4067 5.77927L17.2573 6.23141C17.3922 5.82226 17.405 5.78314 17.4058 5.77927L17.4048 5.77829L17.4028 5.77731C17.4014 5.77686 17.3995 5.77681 17.3979 5.77634C17.3949 5.7754 17.3916 5.77442 17.3882 5.77341C17.3812 5.77137 17.3734 5.76881 17.3647 5.76657C17.3474 5.7621 17.3265 5.75742 17.3022 5.7529C17.2533 5.74381 17.1903 5.73601 17.1138 5.73239C16.9599 5.72516 16.7522 5.73679 16.4888 5.79391C15.9977 5.90042 15.3162 6.16601 14.4194 6.76266C12.8367 6.35906 11.1779 6.35885 9.59521 6.76266C8.69657 6.16608 8.01354 5.89934 7.521 5.79294C7.25704 5.73592 7.04909 5.72522 6.89502 5.73239C6.81813 5.73599 6.75457 5.74384 6.70557 5.7529C6.68125 5.7574 6.66043 5.76213 6.64307 5.76657C6.63438 5.76879 6.62657 5.77138 6.61963 5.77341C6.61618 5.77441 6.61288 5.7754 6.60986 5.77634C6.60834 5.77681 6.60639 5.77686 6.60498 5.77731L6.60303 5.77829H6.60205C6.60162 5.7786 6.60442 5.78737 6.75732 6.25388L6.60107 5.77927L6.38623 5.84958L6.29736 6.05759C5.91883 6.94378 5.85294 7.92891 6.104 8.85349C5.50444 9.61228 5.16329 10.5438 5.13232 11.5117L5.13037 11.7168C5.13037 13.7881 5.75038 15.1458 6.74854 16.0078C7.49758 16.6545 8.41467 16.98 9.31592 17.1572C9.21346 17.3677 9.13873 17.5915 9.09326 17.8232C8.8662 17.9145 8.62048 17.9529 8.37451 17.9326C8.05266 17.906 7.74635 17.782 7.49756 17.5761L7.49463 17.5732L7.37451 17.4648C7.25918 17.35 7.16073 17.2169 7.08252 17.0703L7.07666 17.0605L6.99951 16.9316C6.81101 16.6371 6.5654 16.3821 6.27686 16.1836C5.94914 15.9576 5.57318 15.8098 5.17822 15.7549L5.14795 15.7509L5.1167 15.75H5.09521C5.08433 15.75 5.0695 15.7504 5.05225 15.7509C5.01799 15.7521 4.97052 15.7548 4.9165 15.7607C4.82792 15.7704 4.64494 15.7956 4.48389 15.8886C4.3974 15.9386 4.27416 16.0331 4.20361 16.1972C4.12708 16.3754 4.14722 16.5538 4.20459 16.6943C4.3 16.9278 4.51954 17.1174 4.75146 17.2802L4.75732 17.2841L4.76416 17.289C5.20096 17.5768 5.52196 18.0098 5.66943 18.5117L5.67236 18.5234L5.67334 18.5244V18.5263C5.67371 18.5275 5.67484 18.5289 5.67529 18.5302C5.67621 18.533 5.67696 18.5364 5.67822 18.54C5.68075 18.5473 5.68399 18.5567 5.68799 18.5674C5.69598 18.5886 5.7076 18.6162 5.72217 18.6494C5.75139 18.7159 5.79499 18.8053 5.85693 18.9072C5.98064 19.1107 6.17985 19.3698 6.48486 19.6045C7.0259 20.0206 7.83993 20.3125 9.01904 20.1718C9.02359 20.7898 9.02881 21.3007 9.02881 21.4892C9.0288 21.4927 9.02713 21.4959 9.02686 21.499C9.01287 21.4995 8.99289 21.498 8.96533 21.4941C6.82745 20.7478 5.02356 19.2665 3.87744 17.3125V17.3115C2.70391 15.3161 2.25985 12.9748 2.62256 10.6884V10.6865C2.97726 8.41164 4.12094 6.33429 5.85205 4.81638L5.85107 4.8154C7.44787 3.41667 9.47029 2.60648 11.5825 2.50974L12.0063 2.49997Z" stroke="white"/>
</svg>
