<svg width="24" height="24" viewBox="0 0 24 24" fill="none" xmlns="http://www.w3.org/2000/svg">
<path d="M12.0104 9.29587V12.167L12.9283 10.7675C13.2361 10.2985 13.6605 9.91682 14.1598 9.6611C14.6589 9.40559 15.2158 9.28422 15.776 9.30856H15.7985C17.4135 9.30866 18.2847 9.80632 18.7838 10.5254C19.3112 11.2852 19.4996 12.3964 19.4996 13.7793V19H17.3004V14.4277C17.3004 13.8085 17.2413 13.0079 16.8805 12.3506C16.6945 12.0118 16.4262 11.707 16.0475 11.4902C15.6702 11.2742 15.2121 11.1621 14.6715 11.1621C13.6177 11.1622 12.9042 11.555 12.4908 12.2285C12.1079 12.8523 12.0328 13.6415 12.0328 14.3379V19H9.84338V9.29587H12.0104ZM5.60022 4.99997C5.74466 5.00013 5.88771 5.02858 6.02112 5.08395C6.15481 5.13953 6.27635 5.22163 6.37854 5.32419C6.48075 5.42678 6.56174 5.54865 6.61682 5.68259C6.67185 5.81646 6.70028 5.95972 6.69983 6.10446V6.10544C6.69954 6.32396 6.63446 6.53783 6.51331 6.7197C6.42241 6.856 6.3028 6.96965 6.1637 7.05368L6.02014 7.12692C5.81951 7.21032 5.59845 7.23293 5.38538 7.1904C5.17244 7.14789 4.97704 7.04252 4.82385 6.88864L4.82288 6.88766C4.66906 6.73305 4.56457 6.53616 4.52209 6.32224C4.47964 6.10819 4.50136 5.88626 4.58459 5.68454C4.66788 5.48284 4.8088 5.31023 4.98987 5.18845C5.17041 5.06702 5.38268 5.00142 5.60022 4.99997Z" stroke="white"/>
<path d="M6.7002 9.30896V19.0004H4.5V9.30896H6.7002Z" stroke="white"/>
</svg>
