<svg width="24" height="24" viewBox="0 0 24 24" fill="none" xmlns="http://www.w3.org/2000/svg">
<path d="M7.9775 5C8.19975 5.00005 8.41977 5.04753 8.62203 5.13965C8.82426 5.23179 9.00446 5.36654 9.15035 5.53418L9.17281 5.56055L9.19723 5.58496L10.4072 6.79492C10.7237 7.11207 10.9013 7.54221 10.9013 7.99023C10.9013 8.43832 10.7237 8.86835 10.4072 9.18555V9.18652L9.78902 9.80566C9.49337 10.102 9.3115 10.4904 9.27047 10.9033L9.26168 11.082L9.27047 11.2607C9.31151 11.6737 9.49337 12.0621 9.78902 12.3584L9.79 12.3594L11.6435 14.2139C11.8111 14.3815 12.0104 14.5147 12.2295 14.6055C12.4486 14.6962 12.6837 14.7431 12.9209 14.7432C13.1581 14.7432 13.3931 14.6963 13.6123 14.6055C13.7766 14.5374 13.9294 14.4454 14.0664 14.333L14.1982 14.2139L14.8144 13.5957L14.8154 13.5967C15.1321 13.2802 15.561 13.1016 16.0088 13.1016C16.4566 13.1016 16.8864 13.2801 17.2031 13.5967V13.5957L18.413 14.8057L18.4375 14.8311L18.4648 14.8545C18.6329 15.0005 18.7679 15.1812 18.8603 15.3838C18.9527 15.5864 19 15.8066 19 16.0293C18.9999 16.2522 18.9519 16.4731 18.8593 16.6758C18.7668 16.8782 18.6319 17.0582 18.4638 17.2041L18.4384 17.2266L18.414 17.25C16.8183 18.8344 15.1078 19.247 13.3945 18.8682H13.3955C11.7792 18.5105 10.1542 17.4451 8.62106 15.9775L8.31637 15.6787C6.798 14.1594 5.65976 12.5405 5.20992 10.9219L5.12984 10.5986C4.75305 8.88592 5.16873 7.1775 6.75973 5.58301L6.78414 5.55957L6.8066 5.5332C6.95228 5.36589 7.13206 5.23162 7.33395 5.13965C7.48564 5.07057 7.64744 5.02646 7.81246 5.00879L7.9775 5Z" stroke="white" stroke-width="2"/>
</svg>
