<svg width="25" height="24" viewBox="0 0 25 24" fill="none" xmlns="http://www.w3.org/2000/svg">
<path d="M8.49999 10.8571L12.5 13.1428M8.49999 10.8571L4.5 13.1428M8.49999 10.8571L8.50003 6.28571M12.5 13.1428V17.7143M12.5 13.1428L8.49999 15.4285M12.5 13.1428L16.5 10.8571M12.5 13.1428V8.57143M12.5 13.1428L16.5 15.4286M4.5 13.1428V17.7143L8.49999 20M4.5 13.1428L8.49999 15.4285M8.50003 6.28571L12.5 4L16.5 6.28571M8.50003 6.28571L12.5 8.57143M12.5 17.7143L8.49999 20M12.5 17.7143L16.5 20M8.49999 15.4285V20M16.5 10.8571V6.28571M16.5 10.8571L20.5 13.1429M12.5 8.57143L16.5 6.28571M16.5 15.4286L20.5 13.1429M16.5 15.4286V20M16.5 20L20.5 17.7143V13.1429" stroke="white" stroke-linecap="round" stroke-linejoin="round"/>
</svg>
