<svg width="24" height="24" viewBox="0 0 24 24" fill="none" xmlns="http://www.w3.org/2000/svg">
<path fill-rule="evenodd" clip-rule="evenodd" d="M12 4C10.5897 3.99969 9.20432 4.37221 7.98435 5.07982C6.76438 5.78744 5.75316 6.80498 5.05316 8.02934C4.35317 9.25369 3.98929 10.6413 3.99839 12.0516C4.0075 13.462 4.38927 14.8448 5.10501 16.06L5.67401 16.778L4.97701 19.137L7.29701 18.489L7.67601 18.732C8.72195 19.4035 9.90997 19.8221 11.1458 19.9545C12.3817 20.0869 13.6314 19.9295 14.7959 19.4948C15.9603 19.0601 17.0075 18.3601 17.8543 17.4502C18.7011 16.5403 19.3242 15.4457 19.6742 14.253C20.0243 13.0604 20.0916 11.8026 19.8709 10.5794C19.6502 9.35623 19.1475 8.20129 18.4027 7.20621C17.6579 6.21114 16.6915 5.40329 15.5801 4.84675C14.4687 4.29022 13.243 4.0003 12 4ZM2.00001 12C2.00001 6.477 6.47701 2 12 2C17.523 2 22 6.477 22 12C22 17.523 17.523 22 12 22C10.2383 22.0025 8.50746 21.5377 6.98401 20.653L2.03601 22.035L3.46201 17.206L3.45601 17.199L3.42301 17.144C2.48945 15.5908 1.99744 13.8122 2.00001 12Z" fill="white"/>
<path d="M16.735 13.4921C16.697 13.4741 15.238 12.7561 14.979 12.6621C14.8709 12.6176 14.7558 12.5922 14.639 12.5871C14.443 12.5871 14.277 12.6851 14.149 12.8781C14.003 13.0951 13.562 13.6101 13.426 13.7641C13.408 13.7841 13.384 13.8091 13.369 13.8091C13.356 13.8091 13.13 13.7161 13.062 13.6861C11.498 13.0061 10.311 11.3731 10.148 11.0971C10.125 11.0571 10.124 11.0401 10.124 11.0401C10.129 11.0191 10.182 10.9661 10.209 10.9391C10.289 10.8601 10.375 10.7571 10.458 10.6561L10.575 10.5161C10.696 10.3761 10.75 10.2661 10.812 10.1411L10.845 10.0751C10.8945 9.975 10.9185 9.86424 10.915 9.75262C10.9116 9.641 10.8806 9.53195 10.825 9.43512C10.791 9.36612 10.175 7.88012 10.11 7.72412C9.952 7.34712 9.744 7.17212 9.455 7.17212C9.428 7.17212 9.455 7.17212 9.343 7.17712C9.206 7.18212 8.46 7.28112 8.13 7.48812C7.78 7.70812 7.19 8.41212 7.19 9.64812C7.19 10.7601 7.895 11.8101 8.198 12.2091L8.239 12.2691C9.4 13.9641 10.847 15.2201 12.313 15.8061C13.725 16.3701 14.394 16.4361 14.774 16.4361C14.934 16.4361 15.062 16.4231 15.174 16.4121L15.246 16.4051C15.734 16.3621 16.806 15.8061 17.05 15.1291C17.242 14.5951 17.293 14.0121 17.165 13.8001C17.077 13.6561 16.926 13.5841 16.735 13.4921Z" fill="white"/>
</svg>
